<svg width="148" height="29" viewBox="0 0 148 29" fill="none" xmlns="http://www.w3.org/2000/svg">
<path d="M83.835 0.453125H76.1133V27.9125H83.835V0.453125Z" fill="#B1B1B1"/>
<path d="M94.9582 8.06543H87.1445V28.0029H94.9582V8.06543Z" fill="#B1B1B1"/>
<path d="M94.9582 0.453125H87.1445V5.70938H94.9582V0.453125Z" fill="#B1B1B1"/>
<path d="M0 22.475L7.72174 21.75C7.99751 22.6562 8.45714 23.2906 9.0087 23.6531C9.56025 24.0156 11.4907 24.3781 12.5019 24.3781C13.513 24.3781 13.1453 24.0156 13.6969 23.6531C14.1565 23.2906 14.3404 22.9281 14.3404 22.475C14.3404 21.9312 14.0646 21.4781 13.4211 21.2062C12.9615 21.025 11.8584 20.7531 10.1118 20.3906C7.44596 19.9375 5.51553 19.4844 4.50435 19.1219C3.49317 18.7594 2.57391 18.0344 1.83851 17.1281C1.10311 16.2219 0.735404 15.1344 0.735404 13.9562C0.735404 12.5969 1.10311 11.5094 1.93043 10.6031C2.66584 9.69687 3.76894 8.97188 5.14783 8.42813C6.52671 7.975 8.36522 7.70312 10.5714 7.70312C12.9615 7.70312 14.8 7.88438 15.9031 8.24688C17.0981 8.60938 18.0174 9.15312 18.7528 9.87812C19.4882 10.6031 20.1317 11.6906 20.6832 12.9594L13.3292 13.6844C13.1453 13.05 12.8696 12.5969 12.4099 12.2344C11.7665 11.8719 11.123 11.6 10.2037 11.6C9.3764 11.6 8.73292 11.7812 8.27329 12.0531C7.90559 12.325 7.72174 12.6875 7.72174 13.1406C7.72174 13.5938 7.99751 13.9562 8.45714 14.2281C8.91677 14.5 10.1118 14.6813 11.7665 14.9531C14.3404 15.225 16.2708 15.6781 17.4658 16.1312C18.7528 16.675 19.672 17.4 20.3155 18.3063C20.959 19.2125 21.3267 20.3 21.3267 21.4781C21.3267 22.6563 20.959 23.7437 20.3155 24.8312C19.5801 25.9187 18.477 26.825 17.0062 27.4594C15.5354 28.0938 13.4211 28.4562 10.8472 28.4562C7.17019 28.4562 4.50435 27.9125 2.94161 26.9156C1.47081 25.8281 0.459627 24.3781 0 22.475Z" fill="#A50F2D"/>
<path d="M25.9231 26.0094C27.9455 27.6406 30.5194 28.4562 33.8287 28.4562C37.5057 28.4562 40.3554 27.4594 42.3778 25.5563C44.4001 23.5625 45.5032 21.1156 45.5032 18.0344C45.5032 15.3156 44.6759 13.05 43.0212 11.1469C40.9989 8.79063 37.8734 7.70312 33.8287 7.70312C30.2436 7.70312 27.4858 8.7 25.3716 10.6938C23.2573 12.6875 22.2461 15.1344 22.2461 18.2156C22.2461 21.2969 23.5331 23.925 25.9231 26.0094ZM31.1629 14.0469C31.8983 13.1406 32.8175 12.7781 34.0126 12.7781C35.1157 12.7781 35.943 13.2312 36.6784 14.0469C37.4138 14.8625 37.7815 16.2219 37.7815 17.9437C37.7815 19.8469 37.4138 21.2062 36.6784 22.0219C35.943 22.8375 35.0237 23.2906 33.9206 23.2906C32.8175 23.2906 31.8983 22.8375 31.1629 22.0219C30.4275 21.1156 30.0598 19.8469 30.0598 18.0344C30.0598 16.2219 30.4275 14.8625 31.1629 14.0469Z" fill="#A50F2D"/>
<path d="M55.892 8.06562H59.569V13.6844H55.892V28.0031H48.0783V13.6844H45.1367V8.06562H48.0783V7.15938C48.0783 6.34375 48.1703 5.4375 48.3541 4.44063C48.538 3.44375 48.9057 2.62812 49.3653 2.08437C49.9168 1.45 50.6522 0.90625 51.4796 0.54375C52.3988 0.18125 53.6858 0 55.3404 0C56.7193 0 58.6498 0.18125 61.3156 0.453125L60.3963 5.075C59.4771 4.89375 58.7417 4.89375 58.0982 4.89375C57.3628 4.89375 56.9032 4.98438 56.6274 5.25625C56.3516 5.4375 56.1678 5.8 56.0758 6.25313C55.9839 6.525 55.892 7.15937 55.892 8.06562Z" fill="#A50F2D"/>
<path d="M69.8644 13.6844V20.7531C69.8644 21.5688 69.9563 22.2031 70.1402 22.475C70.416 22.9281 70.8756 23.1094 71.4271 23.1094C71.9787 23.1094 72.806 22.9281 73.8172 22.6562L74.3687 27.9125C72.4383 28.3656 70.6917 28.5469 69.0371 28.5469C67.1066 28.5469 65.7278 28.275 64.8085 27.8219C63.8892 27.3688 63.2458 26.5531 62.7861 25.5563C62.3265 24.5594 62.1427 22.9281 62.1427 20.7531V13.775H59.293V8.06562H62.1427V4.44063L69.8644 0.453125V8.06562V13.6844Z" fill="#A50F2D"/>
<path d="M97.9005 8.06562H105.163V11.3281C106.266 9.96875 107.369 9.0625 108.472 8.51875C109.575 7.975 110.954 7.70312 112.517 7.70312C114.631 7.70312 116.378 8.3375 117.573 9.60625C118.768 10.875 119.411 12.7781 119.411 15.4062V28.0938H111.597V17.0375C111.597 15.7687 111.322 14.8625 110.862 14.4094C110.402 13.8656 109.759 13.5938 108.84 13.5938C107.92 13.5938 107.185 13.9563 106.542 14.6813C105.99 15.4063 105.622 16.675 105.622 18.4875V28.0938H97.8086V8.06562H97.9005Z" fill="#B1B1B1"/>
<path d="M144.415 19.0313C144.415 16.4032 143.956 14.2282 143.129 12.597C142.209 10.9657 141.014 9.69697 139.268 8.79072C137.613 7.88447 135.315 7.52197 132.465 7.52197C128.88 7.52197 126.122 8.51885 124.1 10.422C122.078 12.3251 121.066 14.8626 121.066 17.9438C121.066 20.1188 121.526 22.022 122.537 23.6532C123.548 25.2845 124.835 26.4626 126.306 27.1876C127.869 27.9126 129.983 28.2751 132.649 28.2751C135.683 28.2751 138.073 27.822 139.727 27.0063C141.382 26.1001 142.761 24.7407 143.956 22.747L136.326 22.022C135.866 22.6563 135.407 23.0188 134.947 23.2907C134.304 23.6532 133.568 23.8345 132.833 23.8345C131.638 23.8345 130.719 23.3813 129.891 22.5657C129.34 21.9313 129.064 21.0251 128.88 19.847H144.324V19.0313H144.415ZM128.972 16.3126C129.064 15.1345 129.432 14.2282 129.891 13.5938C130.627 12.597 131.638 12.1438 132.833 12.1438C133.936 12.1438 134.763 12.5063 135.407 13.1407C136.05 13.7751 136.418 14.8626 136.602 16.3126H128.972Z" fill="#B1B1B1"/>
<path d="M35.5747 3.08115C44.3995 3.9874 47.9846 4.80302 56.2579 6.97802C63.1523 8.79052 74.0915 7.9749 74.0915 7.9749V13.5936C69.771 14.1374 60.4865 13.9561 52.7648 11.1468C38.884 6.25302 32.6331 5.25615 25.279 4.7124C15.1672 3.9874 3.21693 5.52802 3.21693 5.52802L3.125 4.53115C3.125 4.53115 20.407 1.54052 35.5747 3.08115Z" fill="#B1B1B1"/>
<path d="M144.141 4.16895H144.509C145.06 4.16895 145.152 3.89707 145.152 3.71582C145.152 3.35332 144.601 3.35332 144.509 3.35332H144.141V4.16895ZM144.785 2.71895C145.612 2.71895 145.98 3.17207 145.98 3.6252C145.98 4.07832 145.612 4.3502 145.244 4.44082C145.428 4.53145 145.612 4.7127 145.612 4.80332L146.163 6.1627H145.244L144.785 5.0752C144.785 4.98457 144.601 4.80332 144.325 4.80332H144.141V6.1627H143.222V2.71895H144.785ZM144.509 7.06895C145.98 7.06895 147.175 5.89082 147.175 4.44082C147.175 2.99082 145.98 1.8127 144.509 1.8127C143.038 1.8127 141.843 2.99082 141.843 4.44082C141.843 5.89082 143.038 7.06895 144.509 7.06895ZM144.509 0.99707C146.439 0.99707 148.002 2.5377 148.002 4.44082C148.002 6.34395 146.439 7.88457 144.509 7.88457C142.578 7.88457 141.016 6.34395 141.016 4.44082C141.108 2.5377 142.578 0.99707 144.509 0.99707Z" fill="#B1B1B1"/>
</svg>
