<svg width="16" height="12" viewBox="0 0 16 12" fill="none" xmlns="http://www.w3.org/2000/svg">
<path fill-rule="evenodd" clip-rule="evenodd" d="M0.21434 1.09826C0.0772427 1.3692 0 1.67558 0 2V10C0 11.1046 0.895431 12 2 12H14C15.1046 12 16 11.1046 16 10V2C16 1.67558 15.9228 1.3692 15.7857 1.09826L8.45 6.6C8.18333 6.8 7.81667 6.8 7.55 6.6L0.21434 1.09826ZM14.6196 0.0978198C14.4245 0.0343234 14.2163 0 14 0H2C1.78374 0 1.5755 0.0343234 1.38043 0.0978198L8 5.0625L14.6196 0.0978198Z" fill="white"/>
</svg>
