<svg width="40" height="40" viewBox="0 0 40 40" fill="none" xmlns="http://www.w3.org/2000/svg">
<path d="M13.0999 18.7083C17.3949 16.8371 20.2589 15.6034 21.6919 15.0074C25.7834 13.3056 26.6335 13.01 27.1877 13.0001C27.3095 12.9981 27.582 13.0283 27.7586 13.1715C27.9076 13.2924 27.9486 13.4558 27.9683 13.5705C27.9879 13.6851 28.0123 13.9464 27.9929 14.1505C27.7712 16.4801 26.8118 22.1335 26.3237 24.7427C26.1172 25.8468 25.7105 26.217 25.3168 26.2532C24.4613 26.3319 23.8116 25.6878 22.9829 25.1446C21.6862 24.2946 20.9537 23.7654 19.695 22.936C18.2404 21.9774 19.1834 21.4506 20.0124 20.5896C20.2293 20.3643 23.999 16.9355 24.0719 16.6244C24.0811 16.5855 24.0895 16.4405 24.0034 16.3639C23.9172 16.2874 23.7901 16.3136 23.6983 16.3344C23.5683 16.3639 21.4968 17.7331 17.4839 20.4419C16.8959 20.8457 16.3633 21.0424 15.8862 21.0321C15.3601 21.0207 14.3482 20.7346 13.596 20.4901C12.6733 20.1902 11.94 20.0316 12.0039 19.5223C12.0371 19.257 12.4025 18.9856 13.0999 18.7083Z" fill="#40454E"/>
</svg>
