<svg width="40" height="40" viewBox="0 0 40 40" fill="none" xmlns="http://www.w3.org/2000/svg">
<path fill-rule="evenodd" clip-rule="evenodd" d="M29.5413 15.7449C29.6796 15.3159 29.5413 15 28.8788 15H26.6913C26.1347 15 25.878 15.2726 25.7388 15.5736C25.7388 15.5736 24.6264 18.0847 23.0506 19.7159C22.5406 20.1889 22.3089 20.3389 22.0306 20.3389C21.8914 20.3389 21.6823 20.1889 21.6823 19.7591V15.7449C21.6823 15.2294 21.5289 15 21.0656 15H17.6257C17.2782 15 17.069 15.2389 17.069 15.4659C17.069 15.9539 17.8573 16.067 17.9382 17.4404V20.4246C17.9382 21.0791 17.8107 21.1977 17.5323 21.1977C16.7907 21.1977 14.9866 18.6748 13.9158 15.7881C13.7083 15.2263 13.4983 15 12.9391 15H10.75C10.125 15 10 15.2726 10 15.5736C10 16.1094 10.7417 18.7714 13.4541 22.2922C15.2624 24.6965 17.8082 26 20.1273 26C21.5181 26 21.6898 25.7109 21.6898 25.2119V23.3946C21.6898 22.8155 21.8214 22.7 22.2622 22.7C22.5872 22.7 23.1431 22.8509 24.4414 24.0098C25.9247 25.384 26.1688 26 27.0038 26H29.1913C29.8163 26 30.1296 25.7109 29.9496 25.1389C29.7513 24.57 29.0429 23.7442 28.1038 22.7644C27.5938 22.2066 26.8288 21.6055 26.5963 21.3046C26.2722 20.9188 26.3647 20.7467 26.5963 20.4034C26.5963 20.4034 29.2629 16.9258 29.5404 15.7449H29.5413Z" fill="#40454E"/>
</svg>
