<svg width="40" height="40" fill="none" xmlns="http://www.w3.org/2000/svg"><path fill-rule="evenodd" clip-rule="evenodd" d="M21.25 1.25V0h-2.5v16.2a3.996 3.996 0 012.5 0V1.25zm.553 15.179a4.018 4.018 0 011.768 1.767L34.634 7.134l.884-.884-1.768-1.768-.884.884L21.803 16.43zm1.998 2.321c.13.393.199.814.199 1.25 0 .436-.07.857-.2 1.25H40v-2.5H23.8zm-.23 3.054a4.018 4.018 0 01-1.768 1.767l11.062 11.063.884.884 1.768-1.768-.884-.884-11.062-11.062zM21.25 23.8c-.393.13-.814.199-1.25.199-.436 0-.857-.07-1.25-.2V40h2.5V23.8zm-3.054-.23a4.017 4.017 0 01-1.767-1.768L5.366 32.866l-.884.884 1.767 1.768.884-.884L18.196 23.57zM16.2 21.25c-.13-.393-.2-.814-.2-1.25 0-.436.07-.857.2-1.25H0v2.5h16.2zM7.134 5.366l-.884-.884L4.482 6.25l.884.884 6.417 6.417.884.884 1.768-1.768-.884-.884-6.417-6.417z" fill="#A50F2D"/></svg>