<svg width="32" height="32" fill="none" xmlns="http://www.w3.org/2000/svg"><path d="M20.958 11.05c3.639 3.64 6.278 7.523 7.624 10.827.674 1.654 1.004 3.116 1.007 4.303.003 1.18-.316 2.01-.853 2.548-.538.537-1.367.856-2.549.853-1.186-.003-2.648-.333-4.302-1.007-3.304-1.346-7.188-3.985-10.827-7.624-3.639-3.64-6.278-7.523-7.624-10.827C2.76 8.468 2.429 7.007 2.427 5.82c-.003-1.18.316-2.01.853-2.548.537-.537 1.367-.856 2.548-.853 1.187.002 2.648.333 4.303 1.007 3.304 1.346 7.188 3.985 10.827 7.624z" stroke="#A50F2D" stroke-width="2"/><path d="M11.056 11.05c-3.64 3.64-6.278 7.523-7.624 10.827-.674 1.654-1.005 3.116-1.007 4.303-.003 1.18.315 2.01.853 2.548.537.537 1.367.856 2.548.853 1.187-.003 2.648-.333 4.303-1.007 3.304-1.346 7.187-3.985 10.827-7.624 3.639-3.64 6.277-7.523 7.624-10.827.674-1.655 1.004-3.116 1.007-4.303.003-1.18-.316-2.01-.853-2.548-.538-.537-1.368-.856-2.549-.853-1.186.002-2.648.333-4.302 1.007-3.304 1.346-7.188 3.985-10.827 7.624z" stroke="#A50F2D" stroke-width="2"/></svg>