<svg width="148" height="29" fill="none" xmlns="http://www.w3.org/2000/svg"><path d="M83.835.453h-7.722v27.46h7.722V.453zm11.123 7.612h-7.814v19.938h7.814V8.065zm0-7.612h-7.814V5.71h7.814V.453z" fill="#B1B1B1"/><path d="M0 22.475l7.722-.725c.276.906.735 1.54 1.287 1.903.551.363 2.482.725 3.493.725 1.011 0 .643-.362 1.195-.725.46-.362.643-.725.643-1.178 0-.544-.275-.997-.919-1.269-.46-.181-1.563-.453-3.31-.815-2.665-.453-4.595-.907-5.607-1.27-1.01-.362-1.93-1.087-2.665-1.993-.736-.906-1.104-1.994-1.104-3.172 0-1.36.368-2.447 1.195-3.353.736-.906 1.839-1.631 3.218-2.175 1.379-.453 3.217-.725 5.423-.725 2.39 0 4.229.181 5.332.544 1.195.362 2.114.906 2.85 1.631.735.725 1.379 1.813 1.93 3.081l-7.354.725c-.184-.634-.46-1.087-.92-1.45-.643-.362-1.286-.634-2.205-.634-.828 0-1.471.181-1.93.453a1.286 1.286 0 00-.552 1.088c0 .453.276.815.735 1.087.46.272 1.655.453 3.31.725 2.573.272 4.504.725 5.699 1.178 1.287.544 2.206 1.269 2.85 2.175a5.44 5.44 0 011.01 3.172c0 1.178-.367 2.266-1.01 3.353-.736 1.088-1.839 1.994-3.31 2.628-1.47.635-3.585.997-6.159.997-3.677 0-6.343-.543-7.905-1.54C1.47 25.828.46 24.378 0 22.475zm25.923 3.535c2.023 1.63 4.596 2.446 7.906 2.446 3.677 0 6.526-.997 8.549-2.9 2.022-1.994 3.125-4.44 3.125-7.522 0-2.718-.827-4.984-2.482-6.887C41 8.79 37.873 7.703 33.83 7.703c-3.585 0-6.343.997-8.457 2.99-2.115 1.995-3.126 4.441-3.126 7.523 0 3.08 1.287 5.709 3.677 7.793zm5.24-11.963c.735-.906 1.655-1.269 2.85-1.269 1.103 0 1.93.453 2.665 1.269.736.816 1.104 2.175 1.104 3.897 0 1.903-.368 3.262-1.104 4.078-.735.816-1.654 1.269-2.757 1.269-1.103 0-2.023-.454-2.758-1.27-.736-.905-1.103-2.174-1.103-3.987 0-1.812.367-3.171 1.103-3.987zm24.729-5.981h3.677v5.618h-3.677v14.32h-7.814v-14.32h-2.941V8.066h2.941v-.907c0-.815.092-1.721.276-2.718.184-.997.552-1.813 1.011-2.357A6.038 6.038 0 0151.48.544C52.399.18 53.686 0 55.34 0c1.38 0 3.31.181 5.976.453l-.92 4.622c-.919-.181-1.654-.181-2.298-.181-.735 0-1.195.09-1.47.362-.276.181-.46.544-.552.997-.092.272-.184.906-.184 1.813z" fill="#A50F2D"/><path d="M69.864 13.684v7.07c0 .815.092 1.45.276 1.721.276.453.736.634 1.287.634.552 0 1.379-.18 2.39-.453l.552 5.257c-1.93.453-3.677.634-5.332.634-1.93 0-3.31-.272-4.229-.725-.919-.453-1.562-1.269-2.022-2.266-.46-.997-.643-2.628-.643-4.803v-6.978h-2.85v-5.71h2.85V4.442L69.864.453v13.231z" fill="#A50F2D"/><path d="M97.9 8.066h7.263v3.262c1.103-1.36 2.206-2.265 3.309-2.81 1.103-.543 2.482-.815 4.045-.815 2.114 0 3.861.635 5.056 1.903 1.195 1.269 1.838 3.172 1.838 5.8v12.688h-7.814V17.038c0-1.27-.275-2.175-.735-2.629-.46-.543-1.103-.815-2.022-.815-.92 0-1.655.362-2.298 1.087-.552.725-.92 1.994-.92 3.807v9.606h-7.813V8.066h.091zm46.515 10.965c0-2.628-.459-4.803-1.286-6.434-.92-1.631-2.115-2.9-3.861-3.806-1.655-.907-3.953-1.269-6.803-1.269-3.585 0-6.343.997-8.365 2.9-2.022 1.903-3.034 4.44-3.034 7.522 0 2.175.46 4.078 1.471 5.71 1.011 1.63 2.298 2.809 3.769 3.534 1.563.725 3.677 1.087 6.343 1.087 3.034 0 5.424-.453 7.078-1.269 1.655-.906 3.034-2.265 4.229-4.259l-7.63-.725c-.46.634-.919.997-1.379 1.269a4.317 4.317 0 01-2.114.543c-1.195 0-2.114-.453-2.942-1.268-.551-.635-.827-1.54-1.011-2.719h15.444v-.816h.091zm-15.443-2.718c.092-1.178.46-2.085.919-2.72.736-.996 1.747-1.45 2.942-1.45 1.103 0 1.93.363 2.574.998.643.634 1.011 1.722 1.195 3.172h-7.63zM35.575 3.081c8.825.906 12.41 1.722 20.683 3.897 6.894 1.813 17.833.997 17.833.997v5.619c-4.32.543-13.604.362-21.326-2.447-13.881-4.894-20.132-5.89-27.486-6.435-10.112-.725-22.062.816-22.062.816l-.092-.997s17.282-2.99 32.45-1.45zm108.566 1.088h.368c.551 0 .643-.272.643-.453 0-.363-.551-.363-.643-.363h-.368v.816zm.644-1.45c.827 0 1.195.453 1.195.906s-.368.725-.736.816c.184.09.368.272.368.362l.551 1.36h-.919l-.459-1.088c0-.09-.184-.272-.46-.272h-.184v1.36h-.919V2.719h1.563zm-.276 4.35c1.471 0 2.666-1.178 2.666-2.628 0-1.45-1.195-2.628-2.666-2.628-1.471 0-2.666 1.178-2.666 2.628 0 1.45 1.195 2.628 2.666 2.628zm0-6.072c1.93 0 3.493 1.54 3.493 3.444 0 1.903-1.563 3.444-3.493 3.444-1.931 0-3.493-1.541-3.493-3.444.092-1.903 1.562-3.444 3.493-3.444z" fill="#B1B1B1"/></svg>