<svg width="40" height="40" fill="none" xmlns="http://www.w3.org/2000/svg"><path fill-rule="evenodd" clip-rule="evenodd" d="M29.541 15.745c.139-.43 0-.745-.662-.745H26.69c-.556 0-.813.273-.952.574 0 0-1.113 2.51-2.688 4.142-.51.473-.742.623-1.02.623-.14 0-.349-.15-.349-.58v-4.014c0-.516-.153-.745-.616-.745h-3.44c-.348 0-.557.239-.557.466 0 .488.788.601.87 1.974v2.985c0 .654-.128.773-.407.773-.741 0-2.545-2.523-3.616-5.41-.208-.562-.418-.788-.977-.788H10.75c-.625 0-.75.273-.75.574 0 .535.742 3.197 3.454 6.718C15.262 24.696 17.808 26 20.127 26c1.391 0 1.563-.29 1.563-.788v-1.817c0-.58.131-.695.572-.695.325 0 .881.15 2.18 1.31 1.483 1.374 1.727 1.99 2.562 1.99h2.187c.625 0 .939-.29.759-.861-.199-.569-.907-1.395-1.846-2.375-.51-.557-1.275-1.159-1.508-1.46-.324-.385-.231-.557 0-.9 0 0 2.667-3.478 2.944-4.66h.001z" fill="#40454E"/></svg>