<svg width="30" height="32" fill="none" xmlns="http://www.w3.org/2000/svg"><path d="M29 7c0 1.314-1.18 2.814-3.816 4.044C22.629 12.236 19.03 13 15 13c-4.03 0-7.63-.764-10.184-1.956C2.181 9.814 1 8.314 1 7c0-1.314 1.18-2.814 3.816-4.044C7.371 1.764 10.97 1 15 1c4.03 0 7.63.764 10.184 1.956C27.82 4.186 29 5.686 29 7z" stroke="#A50F2D" stroke-width="2"/><path d="M28 16c0 .694-.682 1.944-3.24 3.137C22.367 20.255 18.918 21 15 21s-7.366-.745-9.76-1.863C2.681 17.944 2 16.694 2 16s.682-1.944 3.24-3.137c.215-.101.44-.199.672-.293A16.03 16.03 0 013.51 11.5c.898-.499 1.943-.939 3.103-1.305C2.623 11.453 0 13.584 0 16c0 3.866 6.716 7 15 7 8.284 0 15-3.134 15-7 0-1.713-1.32-3.283-3.51-4.5a16.03 16.03 0 01-2.402 1.07c.232.094.457.192.673.293C27.318 14.056 28 15.306 28 16zM15.097 9H15h.097z" fill="#A50F2D"/><path d="M1.044 22.43C.37 23.224 0 24.091 0 25c0 3.866 6.716 7 15 7 8.284 0 15-3.134 15-7 0-1.713-1.32-3.283-3.51-4.5-.713.396-1.52.755-2.402 1.07.232.094.457.192.673.293C27.318 23.056 28 24.306 28 25s-.682 1.944-3.24 3.137C22.367 29.255 18.918 30 15 30s-7.366-.745-9.76-1.863C2.681 26.944 2 25.694 2 25c0-.47.313-1.196 1.31-1.986l-2.266-.585z" fill="#A50F2D"/></svg>