<svg width="32" height="28" viewBox="0 0 32 28" fill="none" xmlns="http://www.w3.org/2000/svg">
<path d="M8.39726 0.875H23.1918L26.9332 7.36694M8.39726 0.875L4.69863 7.64919M8.39726 0.875L12.0959 7.36694M31 14.4234L27.3562 20.3508M31 14.4234L26.9332 7.36694M31 14.4234H16.1161M19.4931 20.3508H27.3562M19.4931 20.3508H12.0959M19.4931 20.3508L16.1161 14.4234M27.3562 20.3508L23.1918 27.125H8.39726L1 14.4234L4.69863 7.64919M4.45205 20.3508H12.0959M4.69863 7.64919L12.0959 20.3508M12.0959 7.36694H26.9332M12.0959 7.36694L15.7945 13.8589L16.1161 14.4234" stroke="#A50F2D" stroke-width="1.61815" stroke-linecap="round" stroke-linejoin="round"/>
</svg>
