<svg width="32" height="32" fill="none" xmlns="http://www.w3.org/2000/svg"><g clip-path="url(#clip0_1646_35849)" stroke="#A50F2D" stroke-width="2"><path d="M11.042 11.05c-3.639 3.64-6.278 7.523-7.624 10.827-.674 1.654-1.004 3.116-1.007 4.303-.003 1.18.316 2.01.853 2.548.538.537 1.367.856 2.549.853 1.186-.003 2.648-.333 4.302-1.007 3.304-1.346 7.188-3.985 10.827-7.624 3.639-3.64 6.278-7.523 7.624-10.827.674-1.655 1.005-3.116 1.007-4.303.003-1.18-.316-2.01-.853-2.548-.537-.537-1.367-.856-2.548-.853-1.187.002-2.649.333-4.303 1.007-3.304 1.346-7.188 3.985-10.827 7.624z"/><path d="M20.944 11.05c3.64 3.64 6.278 7.523 7.624 10.827.674 1.654 1.005 3.116 1.007 4.303.003 1.18-.315 2.01-.853 2.548-.537.537-1.367.856-2.548.853-1.187-.003-2.648-.333-4.302-1.007-3.305-1.346-7.188-3.985-10.828-7.624-3.639-3.64-6.278-7.523-7.624-10.827-.674-1.655-1.004-3.116-1.007-4.303-.003-1.18.316-2.01.853-2.548.538-.537 1.368-.856 2.549-.853 1.186.002 2.648.333 4.302 1.007 3.304 1.346 7.188 3.985 10.827 7.624z"/></g><defs><clipPath id="clip0_1646_35849"><path fill="#fff" transform="matrix(-1 0 0 1 32 0)" d="M0 0h32v32H0z"/></clipPath></defs></svg>