<svg width="32" height="32" fill="none" xmlns="http://www.w3.org/2000/svg"><path d="M30 7c0 1.314-1.18 2.814-3.816 4.044C23.629 12.236 20.03 13 16 13c-4.03 0-7.63-.764-10.184-1.956C3.181 9.814 2 8.314 2 7c0-1.314 1.18-2.814 3.816-4.044C8.371 1.764 11.97 1 16 1c4.03 0 7.63.764 10.184 1.956C28.82 4.186 30 5.686 30 7z" stroke="#A50F2D" stroke-width="2"/><path d="M29 16c0 .694-.682 1.944-3.24 3.137C23.367 20.255 19.918 21 16 21s-7.366-.745-9.76-1.863C3.681 17.944 3 16.694 3 16s.682-1.944 3.24-3.137c.215-.101.44-.199.672-.293A16.03 16.03 0 014.51 11.5c.898-.499 1.943-.939 3.103-1.305C3.623 11.453 1 13.584 1 16c0 3.866 6.716 7 15 7 8.284 0 15-3.134 15-7 0-1.713-1.32-3.283-3.51-4.5a16.03 16.03 0 01-2.402 1.07c.232.094.457.192.673.293C28.318 14.056 29 15.306 29 16zM16.097 9H16h.097z" fill="#A50F2D"/><path d="M2.044 22.43C1.37 23.224 1 24.091 1 25c0 3.866 6.716 7 15 7 8.284 0 15-3.134 15-7 0-1.713-1.32-3.283-3.51-4.5-.713.396-1.52.755-2.402 1.07.232.094.457.192.673.293C28.318 23.056 29 24.306 29 25s-.682 1.944-3.24 3.137C23.367 29.255 19.918 30 16 30s-7.366-.745-9.76-1.863C3.681 26.944 3 25.694 3 25c0-.47.313-1.196 1.31-1.986l-2.266-.585z" fill="#A50F2D"/></svg>