<svg width="32" height="32" fill="none" xmlns="http://www.w3.org/2000/svg"><g clip-path="url(#clip0_1079_27460)"><path d="M15.04 2.845c.28-.96 1.64-.96 1.92 0l2.298 7.86a3 3 0 002.038 2.037l7.86 2.298c.959.28.959 1.64 0 1.92l-7.86 2.298a3 3 0 00-2.038 2.038l-2.298 7.86c-.28.959-1.64.959-1.92 0l-2.298-7.86a3 3 0 00-2.038-2.038l-7.86-2.298c-.958-.28-.958-1.64 0-1.92l7.86-2.298a3 3 0 002.038-2.038l2.298-7.86z" stroke="#A50F2D" stroke-width="2"/></g><defs><clipPath id="clip0_1079_27460"><path fill="#fff" d="M0 0h32v32H0z"/></clipPath></defs></svg>