<svg width="32" height="32" viewBox="0 0 32 32" fill="none" xmlns="http://www.w3.org/2000/svg">
<path fill-rule="evenodd" clip-rule="evenodd" d="M17 1V0H15V1V12.126C15.3196 12.0438 15.6547 12 16 12C16.3453 12 16.6804 12.0438 17 12.126V1ZM18.0319 12.5538C18.6143 12.8979 19.1019 13.3855 19.4461 13.9679L27.7071 5.70711L28.4142 5.00002L27 3.58579L26.2929 4.29289L18.0319 12.5538ZM19.874 15C19.9562 15.3196 20 15.6547 20 16C20 16.3453 19.9562 16.6804 19.874 17H31H32V15H31H19.874ZM19.4461 18.0322C19.1019 18.6146 18.6142 19.1022 18.0318 19.4463L26.2924 27.7071L26.9995 28.4142L28.4137 27L27.7066 26.2929L19.4461 18.0322ZM17 19.874C16.6804 19.9562 16.3453 20 16 20C15.6547 20 15.3196 19.9562 15 19.874V31V32H17L17 31V19.874ZM13.9678 19.4461C13.3854 19.1019 12.8978 18.6142 12.5537 18.0318L4.29244 26.2929L3.58532 27L4.99952 28.4142L5.70663 27.7071L13.9678 19.4461ZM12.126 17C12.0438 16.6804 12 16.3453 12 16C12 15.6547 12.0438 15.3196 12.126 15H1H0V17H1H12.126ZM5.70709 4.29288L4.99999 3.58576L3.58576 4.99996L4.29286 5.70708L9.42634 10.8407L10.1334 11.5478L11.5477 10.1336L10.8406 9.42647L5.70709 4.29288Z" fill="#A50F2D"/>
</svg>
