<svg width="30" height="32" viewBox="0 0 30 32" fill="none" xmlns="http://www.w3.org/2000/svg">
<path d="M29 7C29 8.31369 27.8195 9.81353 25.1837 11.0436C22.6291 12.2357 19.0297 13 15 13C10.9703 13 7.37087 12.2357 4.81628 11.0436C2.1805 9.81353 1 8.31369 1 7C1 5.68631 2.1805 4.18647 4.81628 2.95644C7.37087 1.7643 10.9703 1 15 1C19.0297 1 22.6291 1.7643 25.1837 2.95644C27.8195 4.18647 29 5.68631 29 7Z" stroke="#A50F2D" stroke-width="2"/>
<path d="M28 16C28 16.6944 27.3179 17.9441 24.7608 19.1374C22.3661 20.2549 18.9173 21 15 21C11.0827 21 7.63387 20.2549 5.23917 19.1374C2.68207 17.9441 2 16.6944 2 16C2 15.3056 2.68207 14.0559 5.23917 12.8626C5.45516 12.7618 5.67974 12.6641 5.91246 12.5696C5.02944 12.2553 4.22337 11.8964 3.50977 11.5C4.40809 11.001 5.45292 10.5613 6.61336 10.1955C2.62333 11.4534 0 13.5838 0 16C0 19.866 6.71573 23 15 23C23.2843 23 30 19.866 30 16C30 14.2865 28.6807 12.7168 26.4902 11.5C25.7766 11.8964 24.9706 12.2553 24.0876 12.5696C24.3203 12.6641 24.5448 12.7618 24.7608 12.8626C27.3179 14.0559 28 15.3056 28 16Z" fill="#A50F2D"/>
<path d="M15.097 9.00014C15.0647 9.00005 15.0324 9 15 9L15.097 9.00014Z" fill="#A50F2D"/>
<path d="M1.044 22.4291C0.370207 23.225 0 24.0923 0 25C0 28.866 6.71573 32 15 32C23.2843 32 30 28.866 30 25C30 23.2865 28.6807 21.7168 26.4902 20.5C25.7766 20.8964 24.9706 21.2553 24.0875 21.5696C24.3203 21.6641 24.5448 21.7618 24.7608 21.8626C27.3179 23.0559 28 24.3056 28 25C28 25.6944 27.3179 26.9441 24.7608 28.1374C22.3661 29.2549 18.9173 30 15 30C11.0827 30 7.63387 29.2549 5.23917 28.1374C2.68207 26.9441 2 25.6944 2 25C2 24.5295 2.31311 23.8042 3.31035 23.0141L1.044 22.4291Z" fill="#A50F2D"/>
</svg>
