<svg width="118" height="118" viewBox="0 0 118 118" fill="none" xmlns="http://www.w3.org/2000/svg">
<path fill-rule="evenodd" clip-rule="evenodd" d="M56.5 115.25V117.75L61.5 117.75V115.25L61.5 73.7926C60.687 73.929 59.8518 74 59 74C58.1482 74 57.313 73.929 56.5 73.7926L56.5 115.25ZM50.3091 71.2272C48.9427 70.2542 47.7464 69.058 46.7734 67.6917L15.9823 98.4822L14.2145 100.25L17.75 103.786L19.5177 102.018L50.3091 71.2272ZM44.2074 61.5C44.071 60.687 44 59.8518 44 59C44 58.1482 44.071 57.313 44.2074 56.5L2.75 56.5H0.25L0.25 61.5H2.75L44.2074 61.5ZM46.7736 50.308C47.7467 48.9417 48.943 47.7456 50.3093 46.7727L19.5196 15.9823L17.7519 14.2145L14.2163 17.75L15.984 19.5177L46.7736 50.308ZM56.5 44.2074C57.313 44.071 58.1482 44 59 44C59.8518 44 60.687 44.071 61.5 44.2074L61.5 2.75V0.25L56.5 0.25V2.75L56.5 44.2074ZM67.692 46.7736C69.0583 47.7467 70.2545 48.943 71.2273 50.3093L102.019 19.5179L103.787 17.7501L100.252 14.2146L98.484 15.9823L67.692 46.7736ZM73.7926 56.5C73.929 57.313 74 58.1482 74 59C74 59.8518 73.929 60.687 73.7926 61.5L115.25 61.5H117.75L117.75 56.5H115.25L73.7926 56.5ZM98.4823 102.018L100.25 103.786L103.786 100.25L102.018 98.4823L82.7673 79.2314L80.9996 77.4636L77.464 80.9991L79.2318 82.7669L98.4823 102.018Z" fill="#A50F2D"/>
</svg>
