<svg width="32" height="32" viewBox="0 0 32 32" fill="none" xmlns="http://www.w3.org/2000/svg">
<g clip-path="url(#clip0_5964_28966)">
<path d="M15.0402 2.84459C15.3207 1.88551 16.6793 1.88551 16.9598 2.84459L19.2584 10.7043C19.5456 11.6864 20.3136 12.4544 21.2957 12.7416L29.1554 15.0402C30.1145 15.3207 30.1145 16.6793 29.1554 16.9598L21.2957 19.2584C20.3136 19.5456 19.5456 20.3136 19.2584 21.2957L16.9598 29.1554C16.6793 30.1145 15.3207 30.1145 15.0402 29.1554L12.7416 21.2957C12.4544 20.3136 11.6864 19.5456 10.7043 19.2584L2.84459 16.9598C1.88551 16.6793 1.88551 15.3207 2.84459 15.0402L10.7043 12.7416C11.6864 12.4544 12.4544 11.6864 12.7416 10.7043L15.0402 2.84459Z" stroke="#A50F2D" stroke-width="2"/>
</g>
<defs>
<clipPath id="clip0_5964_28966">
<rect width="32" height="32" fill="white"/>
</clipPath>
</defs>
</svg>
