<svg width="24" height="24" viewBox="0 0 24 24" fill="none" xmlns="http://www.w3.org/2000/svg">
<g clip-path="url(#clip0_6761_12305)">
<path d="M11.0402 3.84459C11.3207 2.88551 12.6793 2.88551 12.9598 3.84459L13.9196 3.5639L12.9598 3.84459L14.127 7.83569C14.4142 8.81781 15.1822 9.5858 16.1643 9.87301L20.1554 11.0402C21.1145 11.3207 21.1145 12.6793 20.1554 12.9598L16.1643 14.127C15.1822 14.4142 14.4142 15.1822 14.127 16.1643L12.9598 20.1554C12.6793 21.1145 11.3207 21.1145 11.0402 20.1554L9.87302 16.1643C9.5858 15.1822 8.81781 14.4142 7.83569 14.127L3.84459 12.9598C2.88551 12.6793 2.88551 11.3207 3.84459 11.0402L7.83569 9.87301C8.81781 9.5858 9.5858 8.81781 9.87301 7.83569L11.0402 3.84459Z" stroke="#A50F2D" stroke-width="2"/>
</g>
<defs>
<clipPath id="clip0_6761_12305">
<rect width="24" height="24" fill="white"/>
</clipPath>
</defs>
</svg>
