<svg width="24" height="24" viewBox="0 0 24 24" fill="none" xmlns="http://www.w3.org/2000/svg">
<g clip-path="url(#clip0_6761_12342)">
<path d="M15.5415 8.46436C18.2531 11.176 20.2106 14.0617 21.2048 16.5022C21.7028 17.7245 21.9399 18.7879 21.9418 19.6352C21.9437 20.4771 21.7173 21.0269 21.3751 21.3691C21.0329 21.7112 20.4831 21.9377 19.6412 21.9357C18.7939 21.9338 17.7305 21.6968 16.5082 21.1988C14.0678 20.2045 11.182 18.2471 8.47039 15.5354C5.75875 12.8238 3.80127 9.93803 2.80702 7.49759C2.30906 6.27533 2.07199 5.21192 2.07007 4.36462C2.06816 3.52271 2.2946 2.97289 2.63676 2.63073C2.97892 2.28856 3.52875 2.06213 4.37066 2.06403C5.21795 2.06595 6.28136 2.30302 7.50363 2.80098C9.94407 3.79524 12.8298 5.75272 15.5415 8.46436Z" stroke="#A50F2D" stroke-width="2"/>
<path d="M8.46879 8.46436C5.75715 11.176 3.79967 14.0617 2.80542 16.5022C2.30746 17.7245 2.07039 18.7879 2.06847 19.6352C2.06656 20.4771 2.293 21.0269 2.63516 21.3691C2.97733 21.7112 3.52715 21.9377 4.36906 21.9357C5.21636 21.9338 6.27977 21.6968 7.50203 21.1988C9.94247 20.2045 12.8282 18.2471 15.5399 15.5354C18.2515 12.8238 20.209 9.93803 21.2032 7.49759C21.7012 6.27533 21.9383 5.21192 21.9402 4.36462C21.9421 3.52271 21.7157 2.97289 21.3735 2.63073C21.0313 2.28856 20.4815 2.06213 19.6396 2.06403C18.7923 2.06595 17.7289 2.30302 16.5066 2.80098C14.0662 3.79524 11.1804 5.75272 8.46879 8.46436Z" stroke="#A50F2D" stroke-width="2"/>
</g>
<defs>
<clipPath id="clip0_6761_12342">
<rect width="24" height="24" fill="white"/>
</clipPath>
</defs>
</svg>
