<svg width="24" height="24" viewBox="0 0 24 24" fill="none" xmlns="http://www.w3.org/2000/svg">
<mask id="path-1-inside-1_6761_12399" fill="white">
<path d="M12 1.43099e-07C8.8174 1.05146e-07 5.76516 1.26428 3.51472 3.51472C1.26428 5.76515 4.2133e-07 8.8174 1.43099e-07 12C-1.35133e-07 15.1826 1.26428 18.2348 3.51472 20.4853C5.76515 22.7357 8.8174 24 12 24L12 12L12 1.43099e-07Z"/>
</mask>
<path d="M12 1.43099e-07C8.8174 1.05146e-07 5.76516 1.26428 3.51472 3.51472C1.26428 5.76515 4.2133e-07 8.8174 1.43099e-07 12C-1.35133e-07 15.1826 1.26428 18.2348 3.51472 20.4853C5.76515 22.7357 8.8174 24 12 24L12 12L12 1.43099e-07Z" stroke="#A50F2D" stroke-width="4" mask="url(#path-1-inside-1_6761_12399)"/>
<mask id="mask0_6761_12399" style="mask-type:alpha" maskUnits="userSpaceOnUse" x="12" y="0" width="12" height="24">
<path d="M12 24C15.1826 24 18.2348 22.7357 20.4853 20.4853C22.7357 18.2348 24 15.1826 24 12C24 8.8174 22.7357 5.76516 20.4853 3.51472C18.2348 1.26428 15.1826 3.75413e-07 12 -1.43098e-07L12 12L12 24Z" fill="white"/>
</mask>
<g mask="url(#mask0_6761_12399)">
<path d="M13.5 24L13.5 0L15 1.78873e-08L15 24L13.5 24Z" fill="#A50F2D"/>
<path d="M16.5 24L16.5 3.57746e-08L18 5.3662e-08L18 24L16.5 24Z" fill="#A50F2D"/>
<path d="M19.5 24L19.5 7.15493e-08L21 8.94366e-08L21 24L19.5 24Z" fill="#A50F2D"/>
<path d="M22.5 24L22.5 1.07324e-07L24 1.25211e-07L24 24L22.5 24Z" fill="#A50F2D"/>
<path d="M23.8529 24L23.8529 0L25.2668 1.68604e-08L25.2668 24L23.8529 24Z" fill="#A50F2D"/>
<path d="M25.9738 24L25.9738 2.52905e-08L27.3876 4.21509e-08L27.3876 24L25.9738 24Z" fill="#A50F2D"/>
<path d="M28.0946 24L28.0946 5.05811e-08L29.5085 6.74415e-08L29.5085 24L28.0946 24Z" fill="#A50F2D"/>
<path d="M30.2154 24L30.2154 7.58716e-08L31.6293 9.2732e-08L31.6293 24L30.2154 24Z" fill="#A50F2D"/>
<path d="M32.3362 24L32.3362 1.01162e-07L33.7501 1.18023e-07L33.7501 24L32.3362 24Z" fill="#A50F2D"/>
</g>
</svg>
