<svg width="26" height="26" viewBox="0 0 26 26" fill="none" xmlns="http://www.w3.org/2000/svg">
<path fill-rule="evenodd" clip-rule="evenodd" d="M14 1.75V0.75H12V1.75V9.12602C12.3196 9.04375 12.6547 9 13 9C13.3453 9 13.6804 9.04375 14 9.12602V1.75ZM15.0319 9.55377C15.6143 9.89792 16.102 10.3855 16.4461 10.968L21.9571 5.45711L22.6642 4.75002L21.25 3.33579L20.5429 4.04289L15.0319 9.55377ZM16.874 12C16.9562 12.3196 17 12.6547 17 13C17 13.3453 16.9562 13.6804 16.874 14H24.25H25.25V12H24.25H16.874ZM16.4461 15.0321C16.1019 15.6145 15.6143 16.1021 15.0318 16.4463L20.5425 21.9571L21.2496 22.6642L22.6638 21.25L21.9567 20.5429L16.4461 15.0321ZM14 16.874C13.6804 16.9562 13.3453 17 13 17C12.6547 17 12.3196 16.9562 12 16.874V24.25V25.25H14V24.25V16.874ZM10.9679 16.4461C10.3855 16.1019 9.89787 15.6143 9.55373 15.0318L4.04255 20.5429L3.33544 21.25L4.74964 22.6642L5.45675 21.9571L10.9679 16.4461ZM9.12602 14C9.04375 13.6804 9 13.3453 9 13C9 12.6547 9.04375 12.3196 9.12602 12H1.75H0.75V14H1.75H9.12602ZM5.4571 4.04288L4.75 3.33577L3.33577 4.74997L4.04287 5.45708L7.89298 9.30728L8.60008 10.0144L10.0143 8.60019L9.30721 7.89308L5.4571 4.04288Z" fill="#A50F2D"/>
</svg>
