<svg width="24" height="24" viewBox="0 0 24 24" fill="none" xmlns="http://www.w3.org/2000/svg">
<g clip-path="url(#clip0_6761_12346)">
<path d="M15 22.125V16.875M15 22.125L1.5 22.125V16.875M15 22.125H22.5V12M15 16.875H6.375M15 16.875L15 8.4375M6.375 16.875L1.5 16.875M6.375 16.875V8.25M15 8.4375L15 1.5M15 8.4375H10.6875H8.53125H7.45313H6.375L6.375 6.82031M15 1.5H22.5L22.5 12M15 1.5L6.375 1.5M6.375 1.5H1.5L1.5 16.875M6.375 1.5V3.75M22.5 12L15 12" stroke="#A50F2D" stroke-width="2" stroke-linecap="square"/>
</g>
<defs>
<clipPath id="clip0_6761_12346">
<rect width="24" height="24" fill="white"/>
</clipPath>
</defs>
</svg>
