<svg width="24" height="24" viewBox="0 0 24 24" fill="none" xmlns="http://www.w3.org/2000/svg">
<g clip-path="url(#clip0_6761_12406)">
<path d="M22.25 5.25C22.25 6.08044 21.4892 7.14278 19.5321 8.05613C17.6561 8.93158 14.9942 9.5 12 9.5C9.00583 9.5 6.3439 8.93158 4.46793 8.05613C2.51077 7.14278 1.75 6.08044 1.75 5.25C1.75 4.41956 2.51077 3.35722 4.46793 2.44387C6.3439 1.56842 9.00583 1 12 1C14.9942 1 17.6561 1.56842 19.5321 2.44387C21.4892 3.35722 22.25 4.41956 22.25 5.25Z" stroke="#A50F2D" stroke-width="2"/>
<path d="M21.75 12C21.75 12.5208 21.2384 13.4581 19.3206 14.353C17.5246 15.1912 14.938 15.75 12 15.75C9.06204 15.75 6.4754 15.1912 4.67938 14.353C2.76155 13.4581 2.25 12.5208 2.25 12C2.25 11.4792 2.76155 10.5419 4.67938 9.64696C4.84137 9.57137 5.00981 9.49804 5.18434 9.42719C4.52208 9.19151 3.91753 8.9223 3.38232 8.625C4.05606 8.25075 4.83969 7.92101 5.71002 7.64662C2.7175 8.59008 0.75 10.1878 0.75 12C0.75 14.8995 5.7868 17.25 12 17.25C18.2132 17.25 23.25 14.8995 23.25 12C23.25 10.7149 22.2605 9.53758 20.6177 8.625C20.0825 8.9223 19.4779 9.19151 18.8157 9.42719C18.9902 9.49804 19.1586 9.57137 19.3206 9.64696C21.2384 10.5419 21.75 11.4792 21.75 12Z" fill="#A50F2D"/>
<path d="M12.0728 6.75011C12.0485 6.75004 12.0243 6.75 12 6.75L12.0728 6.75011Z" fill="#A50F2D"/>
<path d="M1.533 16.8218C1.02765 17.4187 0.75 18.0692 0.75 18.75C0.75 21.6495 5.7868 24 12 24C18.2132 24 23.25 21.6495 23.25 18.75C23.25 17.4649 22.2605 16.2876 20.6177 15.375C20.0825 15.6723 19.4779 15.9415 18.8157 16.1772C18.9902 16.248 19.1586 16.3214 19.3206 16.397C21.2384 17.2919 21.75 18.2292 21.75 18.75C21.75 19.2708 21.2384 20.2081 19.3206 21.103C17.5246 21.9412 14.938 22.5 12 22.5C9.06204 22.5 6.4754 21.9412 4.67938 21.103C2.76155 20.2081 2.25 19.2708 2.25 18.75C2.25 18.3971 2.48483 17.8531 3.23276 17.2606L1.533 16.8218Z" fill="#A50F2D"/>
</g>
<defs>
<clipPath id="clip0_6761_12406">
<rect width="24" height="24" fill="white"/>
</clipPath>
</defs>
</svg>
