<svg width="32" height="32" fill="none" xmlns="http://www.w3.org/2000/svg"><path fill-rule="evenodd" clip-rule="evenodd" d="M17 1V0h-2v12.126a4.01 4.01 0 012 0V1zm1.032 11.554a4.02 4.02 0 011.414 1.414l8.261-8.26.707-.708L27 3.586l-.707.707-8.261 8.26zM19.874 15a4.01 4.01 0 010 2H32v-2H19.874zm-.428 3.032a4.02 4.02 0 01-1.414 1.414l8.26 8.261.707.707L28.415 27l-.707-.707-8.26-8.26zM17 19.874a4.01 4.01 0 01-2 0V32h2V19.874zm-3.032-.428a4.02 4.02 0 01-1.414-1.414l-8.262 8.26-.707.708L5 28.414l.707-.707 8.26-8.26zM12.126 17a4.01 4.01 0 010-2H0v2h12.126zM5.707 4.293L5 3.586 3.586 5l.707.707 5.133 5.134.707.707 1.415-1.414-.707-.708-5.134-5.133z" fill="#A50F2D"/></svg>