<svg width="24" height="24" fill="none" xmlns="http://www.w3.org/2000/svg"><g clip-path="url(#clip0_6761_12305)"><path d="M11.04 3.845c.28-.96 1.64-.96 1.92 0l.96-.281-.96.28 1.167 3.992a3 3 0 002.037 2.037l3.991 1.167c.96.28.96 1.64 0 1.92l-3.99 1.167a3 3 0 00-2.038 2.037l-1.167 3.991c-.28.96-1.64.96-1.92 0l-1.167-3.99a3 3 0 00-2.037-2.038L3.845 12.96c-.96-.28-.96-1.64 0-1.92l3.99-1.167a3 3 0 002.038-2.037l1.167-3.991z" stroke="#A50F2D" stroke-width="2"/></g><defs><clipPath id="clip0_6761_12305"><path fill="#fff" d="M0 0h24v24H0z"/></clipPath></defs></svg>