<svg width="24" height="24" fill="none" xmlns="http://www.w3.org/2000/svg"><mask id="path-1-inside-1_6761_12399" fill="#fff"><path d="M12 0a12 12 0 100 24V0z"/></mask><path d="M12 0a12 12 0 100 24V0z" stroke="#A50F2D" stroke-width="4" mask="url(#path-1-inside-1_6761_12399)"/><mask id="mask0_6761_12399" style="mask-type:alpha" maskUnits="userSpaceOnUse" x="12" y="0" width="12" height="24"><path d="M12 24a12 12 0 000-24v24z" fill="#fff"/></mask><g mask="url(#mask0_6761_12399)" fill="#A50F2D"><path d="M13.5 24V0H15v24h-1.5zm3 0V0H18v24h-1.5zm3 0V0H21v24h-1.5zm3 0V0H24v24h-1.5z"/><path d="M23.853 24V0h1.414v24h-1.414zm2.121 0V0h1.414v24h-1.414zm2.121 0V0h1.414v24h-1.414zm2.12 0V0h1.414v24h-1.414zm2.121 0V0h1.414v24h-1.414z"/></g></svg>