<svg width="26" height="26" fill="none" xmlns="http://www.w3.org/2000/svg"><path fill-rule="evenodd" clip-rule="evenodd" d="M14 1.75v-1h-2v8.376a4.007 4.007 0 012 0V1.75zm1.032 7.804a4.02 4.02 0 011.414 1.414l5.511-5.51.707-.708-1.414-1.414-.707.707-5.511 5.51zM16.874 12a4.01 4.01 0 010 2h8.376v-2h-8.376zm-.428 3.032a4.02 4.02 0 01-1.414 1.414l5.51 5.511.708.707 1.414-1.414-.707-.707-5.51-5.51zM14 16.874a4.01 4.01 0 01-2 0v8.376h2v-8.376zm-3.032-.428a4.02 4.02 0 01-1.414-1.414l-5.511 5.51-.708.708 1.415 1.414.707-.707 5.51-5.51zM9.126 14a4.007 4.007 0 010-2H.75v2h8.376zM5.457 4.043l-.707-.707L3.336 4.75l.707.707 3.85 3.85.707.707L10.014 8.6l-.707-.707-3.85-3.85z" fill="#A50F2D"/></svg>