<svg width="24" height="24" fill="none" xmlns="http://www.w3.org/2000/svg"><g clip-path="url(#clip0_6761_12342)" stroke="#A50F2D" stroke-width="2"><path d="M15.541 8.464c2.712 2.712 4.67 5.598 5.664 8.038.498 1.223.735 2.286.737 3.133.002.842-.225 1.392-.567 1.734-.342.342-.892.569-1.734.567-.847-.002-1.91-.24-3.133-.737-2.44-.995-5.326-2.952-8.038-5.664-2.711-2.711-4.669-5.597-5.663-8.037-.498-1.223-.735-2.286-.737-3.133-.002-.842.225-1.392.567-1.734.342-.342.892-.569 1.734-.567.847.002 1.91.239 3.133.737 2.44.994 5.326 2.952 8.037 5.663z"/><path d="M8.469 8.464c-2.712 2.712-4.67 5.598-5.664 8.038-.498 1.223-.735 2.286-.737 3.133-.001.842.225 1.392.567 1.734.342.342.892.569 1.734.567.847-.002 1.91-.24 3.133-.737 2.44-.995 5.326-2.952 8.038-5.664 2.712-2.711 4.669-5.597 5.663-8.037.498-1.223.735-2.286.737-3.133.002-.842-.224-1.392-.567-1.734-.342-.342-.892-.569-1.733-.567-.848.002-1.911.239-3.133.737-2.44.994-5.327 2.952-8.038 5.663z"/></g><defs><clipPath id="clip0_6761_12342"><path fill="#fff" d="M0 0h24v24H0z"/></clipPath></defs></svg>