<svg width="24" height="24" fill="none" xmlns="http://www.w3.org/2000/svg"><g clip-path="url(#clip0_6761_12406)"><path d="M22.25 5.25c0 .83-.76 1.893-2.718 2.806C17.656 8.932 14.994 9.5 12 9.5c-2.994 0-5.656-.568-7.532-1.444C2.51 7.143 1.75 6.08 1.75 5.25c0-.83.76-1.893 2.718-2.806C6.344 1.568 9.006 1 12 1c2.994 0 5.656.568 7.532 1.444 1.957.913 2.718 1.976 2.718 2.806z" stroke="#A50F2D" stroke-width="2"/><path d="M21.75 12c0 .52-.512 1.458-2.43 2.353-1.795.838-4.382 1.397-7.32 1.397-2.938 0-5.525-.559-7.32-1.397-1.918-.895-2.43-1.832-2.43-2.353 0-.52.512-1.458 2.43-2.353.161-.076.33-.149.504-.22a12.019 12.019 0 01-1.802-.802 12.641 12.641 0 012.328-.978C2.717 8.59.75 10.187.75 12c0 2.9 5.037 5.25 11.25 5.25S23.25 14.9 23.25 12c0-1.285-.99-2.462-2.632-3.375a12.02 12.02 0 01-1.802.802c.174.071.343.144.505.22 1.917.895 2.429 1.832 2.429 2.353zm-9.677-5.25H12h.073z" fill="#A50F2D"/><path d="M1.533 16.822c-.505.597-.783 1.247-.783 1.928C.75 21.65 5.787 24 12 24s11.25-2.35 11.25-5.25c0-1.285-.99-2.462-2.632-3.375-.535.297-1.14.566-1.802.802.174.071.343.144.505.22 1.917.895 2.429 1.832 2.429 2.353 0 .52-.512 1.458-2.43 2.353-1.795.838-4.382 1.397-7.32 1.397-2.938 0-5.525-.559-7.32-1.397-1.918-.895-2.43-1.832-2.43-2.353 0-.353.235-.897.983-1.49l-1.7-.438z" fill="#A50F2D"/></g><defs><clipPath id="clip0_6761_12406"><path fill="#fff" d="M0 0h24v24H0z"/></clipPath></defs></svg>