<svg width="32" height="32" viewBox="0 0 32 32" fill="none" xmlns="http://www.w3.org/2000/svg">
<path d="M8.39726 2.875H23.1918L26.9332 9.36694M8.39726 2.875L4.69863 9.64919M8.39726 2.875L12.0959 9.36694M31 16.4234L27.3562 22.3508M31 16.4234L26.9332 9.36694M31 16.4234H16.1161M19.4931 22.3508H27.3562M19.4931 22.3508H12.0959M19.4931 22.3508L16.1161 16.4234M27.3562 22.3508L23.1918 29.125H8.39726L1 16.4234L4.69863 9.64919M4.45205 22.3508H12.0959M4.69863 9.64919L12.0959 22.3508M12.0959 9.36694H26.9332M12.0959 9.36694L15.7945 15.8589L16.1161 16.4234" stroke="#A50F2D" stroke-width="1.61815" stroke-linecap="round" stroke-linejoin="round"/>
</svg>
