<svg width="32" height="32" viewBox="0 0 32 32" fill="none" xmlns="http://www.w3.org/2000/svg">
<g clip-path="url(#clip0_1646_35849)">
<path d="M11.0424 11.0501C7.40322 14.6892 4.76434 18.573 3.4182 21.8771C2.74429 23.5313 2.41365 24.993 2.41096 26.1795C2.40828 27.3605 2.72676 28.1904 3.26418 28.7278C3.8016 29.2652 4.63143 29.5837 5.8125 29.581C6.99895 29.5783 8.46067 29.2477 10.1148 28.5738C13.419 27.2276 17.3027 24.5887 20.9418 20.9496C24.581 17.3105 27.2199 13.4267 28.566 10.1226C29.2399 8.46843 29.5706 7.0067 29.5732 5.82025C29.5759 4.63919 29.2574 3.80936 28.72 3.27193C28.1826 2.73451 27.3528 2.41604 26.1717 2.41871C24.9853 2.4214 23.5235 2.75204 21.8694 3.42595C18.5652 4.77209 14.6815 7.41097 11.0424 11.0501Z" stroke="#A50F2D" stroke-width="2"/>
<path d="M20.944 11.0501C24.5831 14.6892 27.222 18.573 28.5681 21.8771C29.242 23.5313 29.5727 24.993 29.5754 26.1795C29.578 27.3605 29.2596 28.1904 28.7221 28.7278C28.1847 29.2652 27.3549 29.5837 26.1738 29.581C24.9874 29.5783 23.5257 29.2477 21.8715 28.5738C18.5673 27.2276 14.6836 24.5887 11.0445 20.9496C7.40534 17.3105 4.76647 13.4267 3.42032 10.1226C2.74641 8.46843 2.41577 7.0067 2.41308 5.82025C2.41041 4.63919 2.72888 3.80936 3.2663 3.27193C3.80373 2.73451 4.63356 2.41604 5.81463 2.41871C7.00108 2.4214 8.4628 2.75204 10.1169 3.42595C13.4211 4.77209 17.3048 7.41097 20.944 11.0501Z" stroke="#A50F2D" stroke-width="2"/>
</g>
<defs>
<clipPath id="clip0_1646_35849">
<rect width="32" height="32" fill="white" transform="matrix(-1 0 0 1 32 0)"/>
</clipPath>
</defs>
</svg>
