<svg width="32" height="32" viewBox="0 0 32 32" fill="none" xmlns="http://www.w3.org/2000/svg">
<path d="M28.3712 2.63405C28.6471 2.38638 29.0387 2.76104 28.8035 3.04761L18.2134 15.9507L29.3656 28.3712C29.6132 28.6471 29.2386 29.0387 28.952 28.8035L16.0489 18.2134L3.6284 29.3656C3.35255 29.6132 2.96088 29.2386 3.19608 28.952L13.7862 16.0489L2.63405 3.6284C2.38638 3.35255 2.76104 2.96088 3.0476 3.19608L15.9507 13.7862L28.3712 2.63405Z" fill="#A50F2D"/>
<path d="M14.8534 8.3721C14.9494 7.00744 16.9496 6.9961 17.0611 8.35959L17.4797 13.478C17.5243 14.0229 17.96 14.4536 18.5054 14.492L23.6282 14.8526C24.9928 14.9487 25.0042 16.9488 23.6407 17.0604L18.5223 17.479C17.9774 17.5236 17.5466 17.9593 17.5082 18.5047L17.1476 23.6274C17.0516 24.9921 15.0514 25.0034 14.9399 23.6399L14.5213 18.5216C14.4767 17.9767 14.041 17.5459 13.4956 17.5075L8.37283 17.1469C7.00817 17.0508 6.99683 15.0507 8.36032 14.9392L13.4787 14.5205C14.0236 14.476 14.4544 14.0403 14.4928 13.4949L14.8534 8.3721Z" fill="#A50F2D"/>
</svg>
