<svg width="32" height="32" viewBox="0 0 32 32" fill="none" xmlns="http://www.w3.org/2000/svg">
<path d="M30 7C30 8.31369 28.8195 9.81353 26.1837 11.0436C23.6291 12.2357 20.0297 13 16 13C11.9703 13 8.37087 12.2357 5.81628 11.0436C3.1805 9.81353 2 8.31369 2 7C2 5.68631 3.1805 4.18647 5.81628 2.95644C8.37087 1.7643 11.9703 1 16 1C20.0297 1 23.6291 1.7643 26.1837 2.95644C28.8195 4.18647 30 5.68631 30 7Z" stroke="#A50F2D" stroke-width="2"/>
<path d="M29 16C29 16.6944 28.3179 17.9441 25.7608 19.1374C23.3661 20.2549 19.9173 21 16 21C12.0827 21 8.63387 20.2549 6.23917 19.1374C3.68207 17.9441 3 16.6944 3 16C3 15.3056 3.68207 14.0559 6.23917 12.8626C6.45516 12.7618 6.67974 12.6641 6.91246 12.5696C6.02944 12.2553 5.22337 11.8964 4.50977 11.5C5.40809 11.001 6.45292 10.5613 7.61336 10.1955C3.62333 11.4534 1 13.5838 1 16C1 19.866 7.71573 23 16 23C24.2843 23 31 19.866 31 16C31 14.2865 29.6807 12.7168 27.4902 11.5C26.7766 11.8964 25.9706 12.2553 25.0876 12.5696C25.3203 12.6641 25.5448 12.7618 25.7608 12.8626C28.3179 14.0559 29 15.3056 29 16Z" fill="#A50F2D"/>
<path d="M16.097 9.00014C16.0647 9.00005 16.0324 9 16 9L16.097 9.00014Z" fill="#A50F2D"/>
<path d="M2.044 22.4291C1.37021 23.225 1 24.0923 1 25C1 28.866 7.71573 32 16 32C24.2843 32 31 28.866 31 25C31 23.2865 29.6807 21.7168 27.4902 20.5C26.7766 20.8964 25.9706 21.2553 25.0875 21.5696C25.3203 21.6641 25.5448 21.7618 25.7608 21.8626C28.3179 23.0559 29 24.3056 29 25C29 25.6944 28.3179 26.9441 25.7608 28.1374C23.3661 29.2549 19.9173 30 16 30C12.0827 30 8.63387 29.2549 6.23917 28.1374C3.68207 26.9441 3 25.6944 3 25C3 24.5295 3.31311 23.8042 4.31035 23.0141L2.044 22.4291Z" fill="#A50F2D"/>
</svg>
