<svg width="45" height="56" viewBox="0 0 45 56" fill="none" xmlns="http://www.w3.org/2000/svg">
<path d="M22.5 56C14.9531 49.6067 9.31687 43.6679 5.59125 38.1836C1.86375 32.7012 0 27.6267 0 22.96C0 15.96 2.26219 10.3833 6.78656 6.23C11.3091 2.07667 16.5469 0 22.5 0C28.4531 0 33.6909 2.07667 38.2134 6.23C42.7378 10.3833 45 15.96 45 22.96C45 27.6267 43.1372 32.7012 39.4116 38.1836C35.6841 43.6679 30.0469 49.6067 22.5 56Z" fill="#A50F2D"/>
<circle cx="22.5" cy="22.5" r="17.5" fill="white"/>
<path d="M12 26.2533L16.7069 25.7991C16.875 26.3668 17.1552 26.7642 17.4914 26.9913C17.8276 27.2183 19.0043 27.4454 19.6207 27.4454C20.2371 27.4454 20.0129 27.2183 20.3491 26.9913C20.6293 26.7642 20.7414 26.5371 20.7414 26.2533C20.7414 25.9127 20.5733 25.6288 20.181 25.4585C19.9009 25.345 19.2284 25.1747 18.1638 24.9476C16.5388 24.6638 15.3621 24.3799 14.7457 24.1528C14.1293 23.9258 13.569 23.4716 13.1207 22.9039C12.6724 22.3362 12.4483 21.655 12.4483 20.917C12.4483 20.0655 12.6724 19.3843 13.1767 18.8166C13.625 18.2489 14.2974 17.7948 15.1379 17.4541C15.9784 17.1703 17.0991 17 18.444 17C19.9009 17 21.0216 17.1135 21.694 17.3406C22.4224 17.5677 22.9828 17.9083 23.431 18.3624C23.8793 18.8166 24.2716 19.4978 24.6078 20.2926L20.125 20.7467C20.0129 20.3493 19.8448 20.0655 19.5647 19.8384C19.1724 19.6114 18.7802 19.441 18.2198 19.441C17.7155 19.441 17.3233 19.5546 17.0431 19.7249C16.819 19.8952 16.7069 20.1223 16.7069 20.4061C16.7069 20.69 16.875 20.917 17.1552 21.0873C17.4353 21.2576 18.1638 21.3712 19.1724 21.5415C20.7414 21.7118 21.9181 21.9956 22.6466 22.2795C23.431 22.6201 23.9914 23.0742 24.3836 23.6419C24.7759 24.2096 25 24.8908 25 25.6288C25 26.3668 24.7759 27.048 24.3836 27.7293C23.9353 28.4105 23.2629 28.9782 22.3664 29.3755C21.4698 29.7729 20.181 30 18.6121 30C16.3707 30 14.7457 29.6594 13.7931 29.0349C12.8966 28.3537 12.2802 27.4454 12 26.2533Z" fill="#A50F2D"/>
<path d="M32 13H27V30H32V13Z" fill="#B1B1B1"/>
</svg>
