<svg width="120" height="120" viewBox="0 0 120 120" fill="none" xmlns="http://www.w3.org/2000/svg">
<path d="M85.3928 41.304C85.3928 55.4494 73.9257 66.9165 59.7803 66.9165C45.6349 66.9165 34.1677 55.4494 34.1677 41.304C34.1677 27.1585 45.6349 15.6914 59.7803 15.6914C73.9257 15.6914 85.3928 27.1585 85.3928 41.304Z" stroke="#A50F2D" stroke-width="5"/>
<path d="M34.9623 52.3877C20.5671 53.6129 9.26562 65.6856 9.26562 80.3979C9.26562 95.924 21.852 108.51 37.3782 108.51C52.9043 108.51 65.4907 95.924 65.4907 80.3979C65.4907 75.9872 64.475 71.8137 62.6646 68.0986" stroke="#A50F2D" stroke-width="5"/>
<path d="M84.5986 52.354C99.2024 53.3684 110.734 65.5365 110.734 80.3981C110.734 95.9243 98.148 108.511 82.6219 108.511C73.7979 108.511 65.9234 104.445 60.7693 98.0852" stroke="#A50F2D" stroke-width="5"/>
</svg>
