<svg width="120" height="120" viewBox="0 0 120 120" fill="none" xmlns="http://www.w3.org/2000/svg">
<path d="M40.6946 41.702C43.7554 23.4994 51.2471 10.6382 60.0037 10.6382C68.7603 10.6382 76.252 23.4994 79.3128 41.702M40.6946 78.2978C43.7554 96.5004 51.2471 109.362 60.0037 109.362C68.7603 109.362 76.2521 96.5004 79.3128 78.2978" stroke="#A50F2D" stroke-width="5"/>
<path d="M59.9999 41.712C46.6195 41.712 34.6236 44.0004 26.066 47.6036C21.7821 49.4073 18.4773 51.4912 16.281 53.6776C14.0942 55.8546 13.1381 57.9876 13.1381 59.9959C13.1381 62.0042 14.0942 64.1373 16.281 66.3142C18.4773 68.5006 21.7821 70.5845 26.066 72.3882C34.6236 75.9914 46.6195 78.2798 59.9999 78.2798C73.3802 78.2798 85.3761 75.9914 93.9337 72.3882C98.2176 70.5845 101.522 68.5006 103.719 66.3142C105.906 64.1373 106.862 62.0042 106.862 59.9959C106.862 57.9876 105.906 55.8546 103.719 53.6777C101.522 51.4913 98.2176 49.4073 93.9337 47.6036C85.3761 44.0004 73.3802 41.712 59.9999 41.712Z" stroke="#A50F2D" stroke-width="5"/>
</svg>
