<svg width="30" height="30" viewBox="0 0 30 30" fill="none" xmlns="http://www.w3.org/2000/svg">
<path d="M14.0402 1.84459C14.3207 0.885514 15.6793 0.885513 15.9598 1.84459L18.2584 9.70432C18.5456 10.6864 19.3136 11.4544 20.2957 11.7416L28.1554 14.0402C29.1145 14.3207 29.1145 15.6793 28.1554 15.9598L20.2957 18.2584C19.3136 18.5456 18.5456 19.3136 18.2584 20.2957L15.9598 28.1554C15.6793 29.1145 14.3207 29.1145 14.0402 28.1554L11.7416 20.2957C11.4544 19.3136 10.6864 18.5456 9.70432 18.2584L1.84459 15.9598C0.885513 15.6793 0.885515 14.3207 1.84459 14.0402L9.70432 11.7416C10.6864 11.4544 11.4544 10.6864 11.7416 9.70432L14.0402 1.84459Z" stroke="#A50F2D" stroke-width="2"/>
</svg>
