<svg width="32" height="28" fill="none" xmlns="http://www.w3.org/2000/svg"><path d="M8.397.875h14.795l3.741 6.492M8.397.875L4.7 7.649M8.397.875l3.699 6.492M31 14.423l-3.644 5.928M31 14.423l-4.067-7.056M31 14.423H16.116m3.377 5.928h7.863m-7.863 0h-7.397m7.397 0l-3.377-5.928m11.24 5.928l-4.164 6.774H8.397L1 14.423 4.699 7.65m-.247 12.702h7.644M4.699 7.649l7.397 12.702m0-12.984h14.837m-14.837 0l3.698 6.492.322.564" stroke="#A50F2D" stroke-width="1.618" stroke-linecap="round" stroke-linejoin="round"/></svg>