<svg width="118" height="118" fill="none" xmlns="http://www.w3.org/2000/svg"><path fill-rule="evenodd" clip-rule="evenodd" d="M56.5 115.25v2.5h5V73.793a15.101 15.101 0 01-5 0v41.457zm-6.19-44.023a15.085 15.085 0 01-3.537-3.535l-30.79 30.79-1.769 1.768 3.536 3.536 1.768-1.768 30.791-30.79zM44.206 61.5a15.101 15.101 0 010-5H.25v5h43.957zm2.567-11.192a15.086 15.086 0 013.535-3.535l-30.79-30.79-1.767-1.769-3.536 3.536 1.768 1.768 30.79 30.79zm9.726-6.1a15.101 15.101 0 015 0V.25h-5v43.957zm11.192 2.566a15.084 15.084 0 013.535 3.535l30.792-30.791 1.768-1.768-3.535-3.535-1.768 1.767-30.792 30.792zm6.1 9.726a15.101 15.101 0 010 5h43.958v-5H73.793zm24.69 45.518l1.768 1.768 3.536-3.536-1.768-1.768-19.25-19.25L81 77.463l-3.536 3.535 1.768 1.768 19.25 19.251z" fill="#A50F2D"/></svg>