<svg width="40" height="40" viewBox="0 0 40 40" fill="none" xmlns="http://www.w3.org/2000/svg">
<path fill-rule="evenodd" clip-rule="evenodd" d="M21.25 1.25V0L18.75 0V1.25L18.75 16.1992C19.1433 16.0699 19.5635 16 20 16C20.4365 16 20.8567 16.0699 21.25 16.1992L21.25 1.25ZM21.8034 16.4286C22.5646 16.8138 23.186 17.4351 23.5712 18.1963L34.6339 7.13389L35.5178 6.25002L33.75 4.48223L32.8661 5.36611L21.8034 16.4286ZM23.8008 18.75C23.9301 19.1433 24 19.5635 24 20C24 20.4365 23.9301 20.8567 23.8008 21.25H38.75H40V18.75H38.75H23.8008ZM23.5712 21.8038C23.1859 22.565 22.5645 23.1863 21.8033 23.5714L32.8655 34.6339L33.7494 35.5178L35.5172 33.75L34.6333 32.8661L23.5712 21.8038ZM21.25 23.8008C20.8567 23.9301 20.4365 24 20 24C19.5635 24 19.1433 23.9301 18.75 23.8008V38.75V40H21.25V38.75V23.8008ZM18.1962 23.5712C17.435 23.186 16.8137 22.5645 16.4286 21.8033L5.36555 32.8661L4.48165 33.7499L6.2494 35.5177L7.13329 34.6339L18.1962 23.5712ZM16.1992 21.25C16.0699 20.8567 16 20.4365 16 20C16 19.5635 16.0699 19.1433 16.1992 18.75L1.25 18.75H0L0 21.25H1.25L16.1992 21.25ZM7.13386 5.3661L6.24999 4.4822L4.4822 6.24995L5.36607 7.13384L11.7829 13.5508L12.6668 14.4347L14.4346 12.667L13.5507 11.7831L7.13386 5.3661Z" fill="#A50F2D"/>
</svg>
