<svg width="120" height="120" fill="none" xmlns="http://www.w3.org/2000/svg"><path d="M85.393 41.304c0 14.145-11.467 25.612-25.613 25.612-14.145 0-25.612-11.467-25.612-25.612 0-14.146 11.467-25.613 25.612-25.613 14.146 0 25.613 11.467 25.613 25.613z" stroke="#A50F2D" stroke-width="5"/><path d="M34.962 52.388C20.567 53.613 9.266 65.686 9.266 80.398c0 15.526 12.586 28.112 28.112 28.112 15.526 0 28.113-12.586 28.113-28.112a28 28 0 00-2.826-12.3" stroke="#A50F2D" stroke-width="5"/><path d="M84.599 52.354c14.603 1.014 26.135 13.183 26.135 28.044 0 15.526-12.586 28.113-28.112 28.113-8.824 0-16.699-4.066-21.853-10.426" stroke="#A50F2D" stroke-width="5"/></svg>