<svg width="120" height="120" fill="none" xmlns="http://www.w3.org/2000/svg"><path d="M40.695 41.702c3.06-18.203 10.552-31.064 19.309-31.064 8.756 0 16.248 12.861 19.309 31.064M40.695 78.298c3.06 18.202 10.552 31.064 19.309 31.064 8.756 0 16.248-12.862 19.309-31.064M60 41.712c-13.38 0-25.376 2.288-33.934 5.892-4.284 1.803-7.589 3.887-9.785 6.074-2.187 2.177-3.143 4.31-3.143 6.318s.956 4.141 3.143 6.318c2.196 2.187 5.501 4.27 9.785 6.074C34.624 75.991 46.62 78.28 60 78.28c13.38 0 25.376-2.289 33.934-5.892 4.284-1.803 7.588-3.887 9.785-6.074 2.187-2.177 3.143-4.31 3.143-6.318s-.956-4.141-3.143-6.318c-2.197-2.187-5.501-4.27-9.785-6.074C85.376 44 73.38 41.712 60 41.712z" stroke="#A50F2D" stroke-width="5"/></svg>