<svg width="32" height="32" viewBox="0 0 32 32" fill="none" xmlns="http://www.w3.org/2000/svg">
<path d="M20.9576 11.0501C24.5968 14.6892 27.2357 18.573 28.5818 21.8771C29.2557 23.5313 29.5864 24.993 29.589 26.1795C29.5917 27.3605 29.2732 28.1904 28.7358 28.7278C28.1984 29.2652 27.3686 29.5837 26.1875 29.581C25.001 29.5783 23.5393 29.2477 21.8852 28.5738C18.581 27.2276 14.6973 24.5887 11.0582 20.9496C7.41901 17.3105 4.78014 13.4267 3.43399 10.1226C2.76009 8.46843 2.42944 7.0067 2.42676 5.82025C2.42408 4.63919 2.74255 3.80936 3.27998 3.27193C3.8174 2.73451 4.64723 2.41604 5.8283 2.41871C7.01475 2.4214 8.47647 2.75204 10.1306 3.42595C13.4348 4.77209 17.3185 7.41097 20.9576 11.0501Z" stroke="#A50F2D" stroke-width="2"/>
<path d="M11.056 11.0501C7.41689 14.6892 4.77801 18.573 3.43187 21.8771C2.75796 23.5313 2.42732 24.993 2.42463 26.1795C2.42196 27.3605 2.74043 28.1904 3.27785 28.7278C3.81528 29.2652 4.6451 29.5837 5.82617 29.581C7.01262 29.5783 8.47435 29.2477 10.1285 28.5738C13.4327 27.2276 17.3164 24.5887 20.9555 20.9496C24.5947 17.3105 27.2335 13.4267 28.5797 10.1226C29.2536 8.46843 29.5842 7.0067 29.5869 5.82025C29.5896 4.63919 29.2711 3.80936 28.7337 3.27193C28.1963 2.73451 27.3664 2.41604 26.1854 2.41871C24.9989 2.4214 23.5372 2.75204 21.8831 3.42595C18.5789 4.77209 14.6952 7.41097 11.056 11.0501Z" stroke="#A50F2D" stroke-width="2"/>
</svg>
