<svg width="45" height="56" fill="none" xmlns="http://www.w3.org/2000/svg"><path d="M22.5 56C14.953 49.607 9.317 43.668 5.591 38.184 1.864 32.7 0 27.627 0 22.96c0-7 2.262-12.577 6.787-16.73C11.309 2.077 16.547 0 22.5 0c5.953 0 11.19 2.077 15.713 6.23C42.738 10.383 45 15.96 45 22.96c0 4.667-1.863 9.741-5.588 15.224C35.684 43.668 30.047 49.607 22.5 56z" fill="#A50F2D"/><circle cx="22.5" cy="22.5" r="17.5" fill="#fff"/><path d="M12 26.253l4.707-.454c.168.568.448.965.784 1.192.337.227 1.513.454 2.13.454.616 0 .392-.227.728-.454.28-.227.392-.454.392-.738 0-.34-.168-.624-.56-.794-.28-.114-.953-.284-2.017-.511-1.625-.284-2.802-.568-3.418-.795-.617-.227-1.177-.681-1.625-1.25a3.15 3.15 0 01-.673-1.986c0-.852.224-1.533.729-2.1.448-.568 1.12-1.022 1.96-1.363.841-.284 1.962-.454 3.307-.454 1.457 0 2.578.113 3.25.34.728.228 1.289.568 1.737 1.022.448.455.84 1.136 1.177 1.93l-4.483.455c-.112-.398-.28-.681-.56-.909-.393-.227-.785-.397-1.345-.397-.505 0-.897.114-1.177.284a.813.813 0 00-.336.681c0 .284.168.511.448.681.28.17 1.009.284 2.017.454 1.57.17 2.746.455 3.475.738.784.341 1.344.795 1.737 1.363.392.568.616 1.249.616 1.987s-.224 1.419-.616 2.1c-.449.681-1.121 1.25-2.018 1.646-.896.398-2.185.625-3.754.625-2.241 0-3.866-.34-4.819-.965-.896-.681-1.513-1.59-1.793-2.782z" fill="#A50F2D"/><path d="M32 13h-5v17h5V13z" fill="#B1B1B1"/></svg>