<svg width="40" height="40" fill="none" xmlns="http://www.w3.org/2000/svg"><path d="M29.167 15.016a7.224 7.224 0 01-2.062.562 3.59 3.59 0 001.58-1.978 7.195 7.195 0 01-2.28.868 3.603 3.603 0 00-4.317-.71 3.581 3.581 0 00-1.579 1.68 3.56 3.56 0 00-.222 2.29 10.23 10.23 0 01-4.1-1.084 10.186 10.186 0 01-3.3-2.651 3.57 3.57 0 001.11 4.773 3.59 3.59 0 01-1.626-.447v.044c0 .826.287 1.625.812 2.264a3.596 3.596 0 002.068 1.242 3.63 3.63 0 01-1.622.061 3.58 3.58 0 001.277 1.777 3.604 3.604 0 002.077.706 7.216 7.216 0 01-5.315 1.48 10.188 10.188 0 005.503 1.608c6.605 0 10.216-5.448 10.216-10.172 0-.154-.004-.31-.01-.462a7.276 7.276 0 001.791-1.85v-.001z" fill="#40454E"/></svg>